<svg width="69" height="70" viewBox="0 0 69 70" fill="none" xmlns="http://www.w3.org/2000/svg">
<g id="social-network/Amazon/colored">
<path id="Shape" fill-rule="evenodd" clip-rule="evenodd" d="M26.483 30.5783C25.629 31.8253 25.202 33.327 25.202 35.086H25.1968C25.1968 37.3017 25.8179 39.0161 27.0601 40.2237C28.3022 41.4314 29.8912 42.0352 31.8217 42.0352C33.0768 42.0352 34.1326 41.9092 34.9866 41.6519C36.34 41.2686 37.7193 40.3025 39.1271 38.7483C39.228 38.8769 39.404 39.1237 39.6576 39.4965C39.906 39.8667 40.0872 40.1108 40.201 40.2421C40.3123 40.3681 40.5012 40.5729 40.7652 40.8512C41.0291 41.1321 41.3345 41.4261 41.6865 41.7307C42.1134 41.9092 42.4783 41.8829 42.7785 41.6519C42.9545 41.4996 44.0828 40.5099 46.1686 38.6722C46.3704 38.5199 46.4688 38.3414 46.4688 38.1392C46.4688 37.9607 46.3937 37.7559 46.2436 37.5275L45.3793 36.3619C45.2033 36.1203 45.017 35.7265 44.8358 35.1752C44.6443 34.6318 44.5512 34.028 44.5512 33.3638V24.1226C44.5512 24.0228 44.5408 23.6973 44.5149 23.1512C44.4891 22.6052 44.4528 22.2455 44.4011 22.0801C44.3545 21.9147 44.2769 21.6154 44.1734 21.1875C44.075 20.7517 43.9663 20.4209 43.8369 20.1899C43.7153 19.9588 43.5419 19.7015 43.3271 19.4075C43.1123 19.1161 42.882 18.8404 42.6336 18.5858C41.024 17.0841 38.7907 16.3333 35.9311 16.3333H34.9918C32.761 16.4593 30.8072 17.071 29.1381 18.1657C27.4715 19.2605 26.4235 20.9407 25.9965 23.2064C25.9706 23.3087 25.9577 23.3954 25.9577 23.4741C25.9577 23.8312 26.1724 24.0596 26.5969 24.1646L30.9263 24.7002C31.3274 24.624 31.5784 24.33 31.6819 23.8207C31.8553 23.0068 32.2435 22.3689 32.8464 21.9094C33.4494 21.4474 34.1662 21.1849 34.9943 21.1061H35.2868C36.4176 21.1061 37.2457 21.4894 37.7711 22.256C38.1204 22.8126 38.3016 23.9099 38.3016 25.5377V26.1861C36.7696 26.3121 35.662 26.4119 34.9892 26.4906C33.0069 26.7453 31.3377 27.1654 29.9843 27.7508C28.5015 28.3888 27.337 29.3313 26.483 30.5783ZM32.4091 36.7084C31.92 36.1046 31.6767 35.3118 31.6767 34.3194L31.6741 34.322C31.6741 32.1325 32.7765 30.7201 34.9865 30.0847C35.737 29.8826 36.842 29.7776 38.2989 29.7776V30.7306C38.2989 31.5444 38.2938 32.1325 38.2808 32.4895C38.2679 32.8466 38.1928 33.3113 38.0557 33.881C37.9159 34.4533 37.7089 34.981 37.4346 35.4667C36.8575 36.5614 36.0398 37.2466 34.9891 37.5275C34.9374 37.5275 34.8416 37.5407 34.7045 37.5669C34.5647 37.5906 34.4612 37.6011 34.3836 37.6011C33.5555 37.6011 32.9007 37.3044 32.4091 36.7084Z" fill="#221F1F"/>
<path id="Path" d="M47.4831 46.6164C47.5348 46.5114 47.6125 46.4116 47.7082 46.3092C48.3371 45.8787 48.94 45.5846 49.5197 45.4324C50.4694 45.1803 51.3985 45.0386 52.3016 45.0123C52.5526 44.9861 52.7933 45.0018 53.0159 45.0517C54.1467 45.1567 54.8273 45.3457 55.0499 45.6293C55.1534 45.7789 55.2 46.0073 55.2 46.3119V46.5796C55.2 47.4722 54.9619 48.5224 54.4857 49.73C54.007 50.9377 53.3419 51.9143 52.4931 52.652C52.3637 52.757 52.2525 52.8043 52.1515 52.8043C52.0998 52.8043 52.048 52.7912 52.0014 52.7675C51.8462 52.6888 51.8125 52.5496 51.8876 52.3475C52.8192 50.1317 53.2798 48.5933 53.2798 47.7269C53.2798 47.446 53.2281 47.2412 53.1297 47.1152C52.8787 46.8133 52.1774 46.6584 51.0206 46.6584C50.5962 46.6584 50.0942 46.6846 49.5197 46.7372C48.8883 46.8159 48.3112 46.8894 47.7859 46.9656C47.6306 46.9656 47.5348 46.9393 47.4831 46.8868C47.4313 46.8343 47.421 46.787 47.4469 46.7345C47.4469 46.7083 47.4572 46.6715 47.4831 46.6216V46.6164Z" fill="#FF9900"/>
<path id="Path_2" d="M13.8777 45.9681C14.0019 45.7633 14.2012 45.7502 14.4781 45.9287C20.7509 49.6199 27.5776 51.4681 34.9555 51.4681C39.8724 51.4681 44.7297 50.5361 49.525 48.6774L50.0684 48.449C50.3065 48.344 50.4747 48.2705 50.5756 48.2206C50.9534 48.0683 51.2484 48.1418 51.4632 48.449C51.6754 48.7535 51.6056 49.0344 51.2562 49.2891C50.8033 49.6199 50.2262 50.0032 49.5224 50.4337C47.3667 51.7333 44.9574 52.7388 42.2972 53.4529C39.6395 54.1617 37.0439 54.5214 34.5078 54.5214C30.5924 54.5214 26.8918 53.8257 23.406 52.4395C19.9125 51.0533 16.7916 49.0974 14.0304 46.5771C13.8777 46.4537 13.8 46.3225 13.8 46.1965C13.8 46.1177 13.8259 46.0442 13.8777 45.9681Z" fill="#FF9900"/>
</g>
</svg>
