<svg width="69" height="70" viewBox="0 0 69 70" fill="none" xmlns="http://www.w3.org/2000/svg">
<g id="social-network/Apple/colored">
<path id="Shape" fill-rule="evenodd" clip-rule="evenodd" d="M42.0711 14C42.4323 16.4888 41.4337 18.9271 40.1164 20.6521C38.7071 22.5025 36.278 23.9336 33.9244 23.8589C33.4947 21.4761 34.5948 19.021 35.9333 17.3706C37.4017 15.5492 39.9181 14.1518 42.0711 14ZM49.1414 49.0315C50.3548 47.145 50.8081 46.1933 51.75 44.0635C44.8993 41.4205 43.8016 31.5399 50.5815 27.7476C48.5135 25.1166 45.6075 23.5915 42.8644 23.5915C40.8879 23.5915 39.5336 24.1148 38.3025 24.5905C37.2765 24.9869 36.336 25.3503 35.1922 25.3503C33.9561 25.3503 32.8614 24.9521 31.7152 24.5352C30.4558 24.0771 29.134 23.5963 27.494 23.5963C24.4156 23.5963 21.139 25.5045 19.0616 28.7667C16.1414 33.3613 16.6395 41.9987 21.3751 49.3568C23.0677 51.9902 25.3292 54.9488 28.2872 54.9753C29.5145 54.9877 30.3312 54.616 31.2151 54.2139C32.2267 53.7536 33.3262 53.2533 35.2299 53.243C37.1449 53.2314 38.2271 53.7377 39.2252 54.2048C40.0864 54.6078 40.885 54.9815 42.1019 54.9681C45.0622 54.944 47.4488 51.6649 49.1414 49.0315Z" fill="#0B0B0A"/>
</g>
</svg>
