<svg width="25" height="25" viewBox="0 0 25 25" fill="none" xmlns="http://www.w3.org/2000/svg">
<path fill-rule="evenodd" clip-rule="evenodd" d="M19.067 12.8643C19.067 12.5881 18.8432 12.3643 18.567 12.3643L6.56702 12.3643C6.29088 12.3643 6.06702 12.5881 6.06702 12.8643C6.06702 13.1404 6.29088 13.3643 6.56702 13.3643L18.567 13.3643C18.8432 13.3643 19.067 13.1404 19.067 12.8643Z" fill="#333333"/>
<path fill-rule="evenodd" clip-rule="evenodd" d="M14.2135 8.5107C14.0183 8.70597 14.0183 9.02255 14.2135 9.21781L17.86 12.8643L14.2135 16.5107C14.0183 16.706 14.0183 17.0226 14.2135 17.2178C14.4088 17.4131 14.7254 17.4131 14.9206 17.2178L18.9206 13.2178C19.1159 13.0225 19.1159 12.706 18.9206 12.5107L14.9206 8.5107C14.7254 8.31544 14.4088 8.31544 14.2135 8.5107Z" fill="#333333"/>
</svg>
