<svg width="69" height="70" viewBox="0 0 69 70" fill="none" xmlns="http://www.w3.org/2000/svg">
<g id="social-network/Airbnb/colored">
<path id="Shape" fill-rule="evenodd" clip-rule="evenodd" d="M51.7488 44.6512C51.7367 43.5543 51.5021 42.4344 51.0766 41.3163C50.8658 40.7608 50.6797 40.3235 50.2581 39.3693L50.2335 39.3135L50.1166 39.0486C47.5298 33.2231 44.8091 27.4478 41.9553 21.7228C41.8831 21.5789 41.8256 21.4638 41.6984 21.2088L41.6932 21.1984C41.2263 20.2626 41.0112 19.8397 40.7312 19.3197C40.2184 18.3741 39.6958 17.6352 39.0646 17.0306C37.9538 15.9365 36.4505 15.2687 34.8886 15.1683L34.209 15.1667C32.5684 15.2495 31.0151 15.9439 29.8727 17.0945C29.2744 17.6799 28.7726 18.3972 28.2719 19.3193C27.9908 19.8397 27.7596 20.2934 27.3189 21.1779L27.2668 21.2824C27.1661 21.4845 27.1223 21.5723 27.0656 21.6857C25.1665 25.493 23.3131 29.3532 21.504 33.2667C20.181 36.141 19.2463 38.2109 18.3474 40.2788C17.7924 41.5611 17.4782 42.5203 17.3407 43.5388C17.0497 45.5037 17.4654 47.5766 18.4915 49.2807C19.3752 50.7596 20.7006 51.9463 22.2431 52.6331C23.445 53.17 24.7698 53.4127 26.0741 53.3331C27.7222 53.2428 29.3773 52.6557 30.9108 51.6738C32.136 50.8969 33.2532 49.9198 34.5021 48.5923C35.6328 49.7978 36.6607 50.7148 37.7737 51.4651C39.2902 52.4959 40.9166 53.1426 42.5574 53.3028C44.4649 53.5086 46.4346 53.0155 48.0285 51.9232C49.4317 50.9684 50.5399 49.5608 51.1627 47.9445C51.5667 46.8995 51.7676 45.773 51.7488 44.6512ZM47.8659 46.2382C47.5365 47.413 46.7414 48.4427 45.7094 49.0325C44.7998 49.5581 43.7013 49.7477 42.6527 49.5667C41.4038 49.3658 40.1757 48.7111 38.898 47.6475C38.2714 47.1274 37.6667 46.5344 36.9787 45.7799C38.2119 44.1277 39.1287 42.6833 39.8524 41.1804C40.7456 39.3191 41.2493 37.581 41.3025 35.855C41.338 34.5587 41.0871 33.3098 40.5424 32.2373C39.8071 30.7598 38.486 29.5966 36.9305 29.031C35.5222 28.5113 33.9523 28.4615 32.5042 28.888C31.1118 29.295 29.8672 30.1584 29.0166 31.3283C28.2758 32.3375 27.8313 33.5916 27.7294 34.9004C27.5935 36.5354 27.9277 38.2364 28.6465 40.0372C29.4302 41.967 30.5424 43.8179 32.0283 45.7753C31.5218 46.3425 30.9732 46.8874 30.3854 47.4087C29.1114 48.5225 27.9036 49.2302 26.6623 49.5076C25.5708 49.7607 24.4214 49.6258 23.4652 49.126C22.3259 48.5394 21.4477 47.43 21.1181 46.1615C20.8702 45.2447 20.9122 44.2284 21.2251 43.2754C21.4091 42.7176 21.5948 42.2678 22.032 41.2784L22.0688 41.1952C22.1486 41.0145 22.2001 40.8973 22.253 40.7759C24.785 35.0718 27.4659 29.379 30.2907 23.7034C30.3507 23.5831 30.3986 23.4869 30.5064 23.2702L30.5172 23.2483C31.0218 22.2337 31.256 21.7719 31.5544 21.2164C31.9544 20.4811 32.3069 20.0033 32.7319 19.6696C33.2414 19.2579 33.8807 19.0373 34.5108 19.052C35.1846 19.0443 35.8432 19.2923 36.3528 19.7346C36.8077 20.1249 37.1557 20.6396 37.6207 21.5365C38.2893 22.8341 38.8712 24.0048 39.937 26.18L40.1274 26.5686L40.1485 26.6115C42.537 31.4974 44.8198 36.4026 46.9953 41.3261C47.0248 41.3949 47.0478 41.448 47.1033 41.5757L47.144 41.6694C47.5529 42.6098 47.7206 43.037 47.8659 43.5666C48.1051 44.4465 48.1068 45.3855 47.8663 46.2368L47.8659 46.2382ZM32.0283 45.7753C32.1659 45.6213 32.3004 45.4656 32.4316 45.3082L32.4171 46.2791C32.2848 46.1103 32.1552 45.9424 32.0283 45.7753ZM36.9787 45.7799C36.8532 45.948 36.7245 46.1183 36.5924 46.2909L36.5588 45.3113C36.7026 45.4743 36.8423 45.6303 36.9787 45.7799ZM34.5 42.7029C34.7191 43.0135 34.8907 43.2401 35.0853 43.4768L34.5102 43.967L33.9143 43.5034C34.1188 43.2308 34.3139 42.9643 34.5 42.7029ZM34.5 42.7029C35.659 41.0744 36.4658 39.6434 37.0124 38.1609C37.4254 37.0212 37.5972 36.007 37.4942 35.0767C37.4124 34.3491 37.0884 33.6831 36.5951 33.2488C35.5627 32.3274 33.89 32.2268 32.7171 33.0087C32.2481 33.3175 31.8798 33.7858 31.6861 34.3281C31.4817 34.874 31.4338 35.5281 31.5205 36.2881C31.6223 37.1089 31.8774 37.9573 32.2828 38.8968C32.7086 39.8713 33.2531 40.8464 33.9247 41.8642L33.9625 41.92L34.0271 42.0154C34.2135 42.2906 34.3657 42.5125 34.5 42.7029Z" fill="#FF7977"/>
</g>
</svg>
