<svg width="51" height="33" viewBox="0 0 51 33" fill="none" xmlns="http://www.w3.org/2000/svg">
<rect x="0.5" y="0.5" width="50" height="32" rx="3" fill="#53B7D1"/>
<path d="M10.5209 22.1774C10.2362 22.1759 9.95323 22.134 9.68102 22.0532C9.38251 21.9643 9.09397 21.8466 8.81979 21.7017C8.44484 21.5147 8.08665 21.2977 7.74894 21.0529C7.44499 20.8221 7.15772 20.5712 6.88913 20.3023C6.52533 19.9494 6.18597 19.5885 5.9069 19.257C5.59825 18.9042 5.33175 18.5186 5.11248 18.1077L5.09394 18.0701V18.0689L5.08967 18.0602V18.0583V18.0563L5.06807 18.0115L5.06665 18.0085L5.06522 18.0055L5.04485 17.9623L5.0422 17.9567V17.9552L5.02713 17.9228L5.02245 17.9127L5.01898 17.905L5.01613 17.8988V17.8977L5.00045 17.8631L4.99882 17.8591L4.99454 17.8554L4.976 17.8135L4.97295 17.8066L4.95482 17.7641L4.9536 17.7614L4.95237 17.7586L4.93526 17.7171L4.93323 17.7122L4.91673 17.6713V17.6699L4.91449 17.6644L4.8988 17.6248L4.89737 17.6209L4.89554 17.6164C4.89065 17.6037 4.88597 17.5911 4.88108 17.578V17.5755L4.87823 17.5678C4.87273 17.5531 4.86845 17.5411 4.86458 17.5304V17.528L4.86152 17.5192L4.84564 17.48L4.84177 17.4686L4.82934 17.4322L4.8273 17.4265L4.82567 17.4208C4.82119 17.4073 4.81753 17.3957 4.81406 17.385L4.8106 17.3738L4.80062 17.3418L4.79878 17.3356V17.3344L4.79675 17.3275L4.78656 17.2959L4.78493 17.2906L4.7833 17.2825C4.77984 17.27 4.77679 17.2592 4.77393 17.2489L4.7719 17.243L4.77006 17.2365C4.76742 17.2264 4.76436 17.2155 4.7613 17.2033L4.75825 17.1914V17.1887C4.75601 17.1798 4.75295 17.1689 4.7501 17.1563L4.74582 17.1406C4.74338 17.131 4.74093 17.1209 4.73829 17.1086L4.73666 17.1011L4.73482 17.0932C4.73238 17.0826 4.73014 17.0719 4.7279 17.0614L4.72545 17.0468C4.72382 17.0393 4.7224 17.0318 4.72077 17.0243V17.0203V17.017V17.0158L4.71771 17V16.998L4.71344 16.9749C4.71201 16.9676 4.71079 16.9603 4.70957 16.953L4.70549 16.9289C4.70427 16.922 4.70325 16.915 4.70203 16.9091C4.70081 16.9032 4.69938 16.8919 4.69795 16.8832L4.69673 16.8747L4.69551 16.8663C4.69408 16.8562 4.69266 16.8465 4.69144 16.8364L4.68675 16.821V16.8182C4.68471 16.8068 4.68471 16.7973 4.68268 16.7886C4.68268 16.7833 4.68145 16.7779 4.68084 16.7726V16.7706C4.67983 16.7612 4.67881 16.7509 4.67779 16.7414C4.67779 16.7359 4.67677 16.7301 4.67616 16.7246V16.7234C4.67534 16.7153 4.6746 16.7071 4.67392 16.6989C4.67392 16.6916 4.6727 16.6845 4.67229 16.6772C4.67188 16.6699 4.67127 16.6628 4.67066 16.6557C4.67066 16.6476 4.66964 16.6395 4.66923 16.6312C4.66883 16.6229 4.66923 16.6175 4.66801 16.6114C4.66679 16.6053 4.66801 16.595 4.66699 16.5869V16.5857C4.66699 16.5788 4.66699 16.5719 4.66699 16.565C4.66699 16.5581 4.66699 16.5541 4.66699 16.5488V16.5409C4.66699 16.5334 4.66699 16.5257 4.66699 16.5182C4.66699 16.5107 4.66699 16.5059 4.66699 16.4998V16.4538C4.66699 16.4443 4.66699 16.4348 4.66699 16.4253C4.66699 16.4186 4.66699 16.4119 4.66699 16.4056C4.66699 16.3992 4.66699 16.3888 4.66699 16.3803C4.66699 16.3755 4.66699 16.371 4.66699 16.3662V16.3593C4.66699 16.3487 4.66699 16.3396 4.66842 16.3305C4.66842 16.3252 4.66842 16.3196 4.66842 16.3143C4.66842 16.3056 4.66944 16.2963 4.67025 16.2853C4.67025 16.2801 4.67025 16.2748 4.67147 16.2696C4.67147 16.2598 4.6731 16.2499 4.67392 16.24V16.2303V16.2234C4.67487 16.2135 4.67589 16.2037 4.67697 16.1938L4.6786 16.1782V16.175C4.6786 16.1661 4.68064 16.1564 4.68227 16.145C4.68227 16.1414 4.68227 16.1379 4.6837 16.1343V16.1292V16.1272C4.68492 16.1173 4.68634 16.1075 4.68777 16.0976L4.68981 16.0836C4.69144 16.0729 4.69307 16.0622 4.6947 16.0517L4.69673 16.0399V16.0381C4.69836 16.0282 4.70019 16.0174 4.70244 16.0049L4.70488 15.9911C4.70692 15.9796 4.70916 15.968 4.7114 15.9563L4.71323 15.9472V15.9423C4.71547 15.9308 4.71792 15.919 4.72036 15.9075L4.7224 15.8977V15.8959C4.72484 15.8844 4.72749 15.8726 4.73014 15.8609V15.8572L4.73177 15.8498C4.73421 15.839 4.73706 15.8275 4.74032 15.8141L4.74297 15.8036C4.74582 15.7924 4.74888 15.7801 4.75275 15.7651L4.75417 15.7598L4.7554 15.7554C4.75886 15.7422 4.76253 15.7288 4.7666 15.7141L4.76762 15.7104L4.76884 15.7062C4.77292 15.6918 4.77658 15.679 4.78004 15.6667L4.78269 15.6576C4.78616 15.646 4.79043 15.6321 4.79471 15.6181V15.6165L4.79695 15.6094C4.80143 15.5952 4.80591 15.5814 4.80999 15.5687L4.81223 15.5618C4.81671 15.5482 4.8216 15.5336 4.8273 15.517L4.82852 15.5132V15.5118C4.83362 15.4968 4.83912 15.4816 4.84401 15.4676L4.84645 15.4611C4.85154 15.4466 4.85704 15.432 4.86213 15.4184L4.86336 15.4152L4.86458 15.4121C4.87089 15.3955 4.87619 15.3819 4.88108 15.3688L4.88312 15.3635C4.88902 15.3487 4.89513 15.3333 4.90145 15.3176L4.90267 15.3147C4.90878 15.2995 4.9155 15.2835 4.92304 15.2657L4.92447 15.2623C4.93139 15.2459 4.93791 15.2305 4.94484 15.2155L4.94708 15.2104C4.95298 15.1967 4.9595 15.1821 4.96745 15.1645L4.96989 15.1592C4.976 15.1458 4.98272 15.1308 4.99148 15.1122L4.99332 15.1082C5.00248 15.0885 5.01022 15.0723 5.01735 15.0575C5.44186 14.1724 6.07658 13.5561 6.69155 12.9603L6.70377 12.9484C7.06146 12.6015 7.39532 12.3054 7.7243 12.0432C8.10054 11.7402 8.50144 11.4671 8.92306 11.2268C9.15744 11.0915 9.40894 10.9863 9.67124 10.9138C9.89603 10.8536 10.1282 10.8229 10.3614 10.8226C10.675 10.8248 10.9862 10.8761 11.2829 10.9747C11.5668 11.0688 11.8416 11.187 12.104 11.3281C12.5231 11.5464 12.9252 11.7941 13.3071 12.0693C13.6665 12.3289 14.006 12.6134 14.3231 12.9206C14.6541 13.2453 14.9571 13.5958 15.2289 13.9686C15.483 14.3014 15.6927 14.664 15.8531 15.0478C15.9576 15.3162 16.0464 15.5901 16.1191 15.8682C16.1825 16.11 16.2181 16.3577 16.2254 16.6071C16.2305 16.8514 16.1999 17.0952 16.1348 17.3313C16.058 17.6014 15.949 17.8619 15.8099 18.1075C15.6118 18.4678 15.3799 18.8098 15.1173 19.129C14.8558 19.4423 14.5758 19.7408 14.2789 20.0229C13.9581 20.334 13.6201 20.628 13.2665 20.9036C12.8964 21.1926 12.5082 21.4592 12.1042 21.7017C11.6336 22.0027 11.0845 22.1677 10.5209 22.1774ZM11.3876 20.919C11.1526 21.0532 10.8987 21.1535 10.6339 21.2169C10.8987 21.1535 11.1526 21.0532 11.3876 20.919ZM7.92962 20.4658C7.95427 20.482 7.97973 20.4984 8.0052 20.5144C7.97709 20.4966 7.95244 20.4806 7.92962 20.4658ZM7.06961 19.7699L7.113 19.8107L7.06961 19.7699ZM7.48454 15.7922L7.4711 15.8204V15.8226L7.45908 15.8487L7.45786 15.8516L7.44645 15.8771V15.8785V15.8799L7.43525 15.906V15.9077L7.42405 15.9348V15.936L7.41386 15.9615V15.9632V15.9648L7.4047 15.9887L7.40347 15.9917L7.39471 16.0154V16.0174V16.019C7.39186 16.0265 7.38921 16.0346 7.38616 16.0434V16.0454C7.3827 16.0555 7.38005 16.063 7.37781 16.0703L7.37658 16.0741L7.36946 16.0968L7.36803 16.1015C7.36572 16.1088 7.36348 16.116 7.36131 16.1233V16.1258V16.1284L7.35499 16.1501L7.3446 16.1564L7.34338 16.1612L7.33849 16.179L7.33707 16.1843C7.33523 16.1914 7.3334 16.1985 7.33157 16.2056L7.33014 16.2114L7.32546 16.2311L7.32423 16.2367L7.3226 16.2442L7.31996 16.2562V16.2594V16.2627L7.31649 16.2791V16.2823L7.31242 16.2926L7.30998 16.3052L7.30875 16.3119V16.3149V16.319C7.30773 16.3252 7.30672 16.3311 7.3057 16.3372L7.30448 16.3447L7.30183 16.3625L7.30061 16.37C7.30061 16.3759 7.29898 16.3817 7.29816 16.3876V16.3921V16.3967C7.29816 16.4022 7.29674 16.4077 7.29612 16.4133V16.4188V16.4237V16.4291C7.29612 16.4328 7.29612 16.4366 7.29511 16.4401V16.4494V16.4544C7.29511 16.4581 7.29511 16.4621 7.29511 16.4658C7.29511 16.4696 7.29511 16.4715 7.29511 16.4745C7.29511 16.4775 7.29511 16.4848 7.29409 16.4899C7.29409 16.4919 7.29409 16.4939 7.29409 16.496V16.4996C7.29409 16.5047 7.29409 16.5099 7.29409 16.5152C7.29409 16.5205 7.29409 16.5227 7.29409 16.5265C7.29409 16.5308 7.29409 16.5354 7.29409 16.5397V16.5521C7.29409 16.5571 7.29409 16.562 7.29409 16.567V16.6027C7.29409 16.6069 7.29409 16.6112 7.29409 16.6154C7.29409 16.6195 7.29409 16.6242 7.29409 16.6288V16.6403C7.29409 16.645 7.29409 16.6497 7.29409 16.6545V16.6602V16.6659C7.29409 16.6691 7.29409 16.6721 7.29409 16.6752V16.68V16.6861V16.692C7.29409 16.696 7.29409 16.7001 7.29409 16.7041V16.7108V16.7181V16.7272C7.29409 16.7325 7.29511 16.7378 7.29572 16.7432C7.29572 16.7453 7.29572 16.7473 7.29572 16.7495V16.7531C7.29572 16.7586 7.29694 16.7639 7.29775 16.7693V16.7734V16.7789L7.29898 16.7872L7.29999 16.7947L7.30142 16.8042V16.809L7.30285 16.818V16.8228V16.8285L7.30407 16.8352V16.841V16.8467L7.30529 16.8532L7.30794 16.8666V16.8704L7.30936 16.8779V16.8817L7.3114 16.8919L7.31303 16.8994C7.31425 16.9054 7.31554 16.9112 7.3169 16.917L7.31873 16.9255L7.32159 16.9376L7.32281 16.9431V16.9472V16.951L7.32709 16.9684L7.32912 16.9765C7.33096 16.9836 7.33259 16.9895 7.33401 16.9949L7.33605 17.0024L7.34114 17.0203L7.34216 17.0239L7.34318 17.0275C7.34481 17.0334 7.34664 17.0391 7.34827 17.045L7.35051 17.0527L7.35601 17.0707L7.35703 17.0741V17.077L7.36334 17.0968V17.0998V17.1029L7.3666 17.1124L7.37007 17.1225L7.37149 17.1264V17.1288L7.37679 17.144L7.37842 17.1486L7.38066 17.1547V17.1574L7.38697 17.1748L7.38901 17.1806L7.39716 17.2019L7.39838 17.2049V17.2068L7.40714 17.2292L7.40877 17.2331L7.41794 17.2558L7.41916 17.2586L7.42731 17.2783L7.42873 17.2817V17.2831V17.2849C7.43199 17.2926 7.43545 17.3005 7.43892 17.3084L7.44014 17.3113L7.45032 17.3346L7.45175 17.338L7.45969 17.3556L7.46193 17.3605L7.46397 17.3649L7.47477 17.3884V17.3898L7.47599 17.3923L7.4874 17.4164V17.4184V17.4198L7.49066 17.4265L7.49941 17.4449V17.4461L7.50369 17.4546L7.51225 17.4721C7.77822 17.9229 8.1104 18.3337 8.49835 18.6916C8.80617 19.0096 9.16918 19.2726 9.57082 19.4688C9.85808 19.6321 10.183 19.7229 10.5158 19.7329C10.8289 19.7275 11.1339 19.6359 11.3953 19.4688C11.8334 19.2038 12.2387 18.8909 12.6033 18.5363C12.9421 18.2267 13.2291 17.8677 13.4539 17.4723C13.788 16.8662 13.724 16.4253 13.478 15.7734C13.2785 15.3387 12.9975 14.9438 12.6493 14.6086C12.2851 14.257 11.8699 13.959 11.4167 13.724C11.1232 13.5543 10.7908 13.4579 10.4494 13.4433C10.1689 13.4462 9.89436 13.5225 9.65495 13.6643C9.2025 13.9292 8.78801 14.2508 8.42217 14.6207L8.41565 14.627C8.03493 14.9573 7.71966 15.3523 7.48536 15.7926L7.48454 15.7922ZM6.93823 19.6444L7.0138 19.7171L6.93823 19.6444ZM13.5719 19.2118C13.5126 19.271 13.4496 19.3331 13.3826 19.3983C13.3042 19.4743 13.2237 19.55 13.1421 19.6245C13.2235 19.55 13.305 19.4743 13.3826 19.3983C13.45 19.3327 13.5128 19.2706 13.5719 19.2114V19.2118ZM14.7623 17.6456C14.748 17.6727 14.7333 17.7001 14.7183 17.7276C14.6198 17.9067 14.5117 18.0806 14.3944 18.2487C14.5117 18.0806 14.6198 17.9067 14.7183 17.7276C14.7335 17.6997 14.7474 17.6723 14.7625 17.645L14.7623 17.6456ZM14.8971 15.4585C14.9708 15.6785 15.0249 15.9043 15.0587 16.1333C15.0253 15.904 14.9713 15.678 14.8971 15.4579V15.4585ZM13.1095 12.9166C13.2166 13.0099 13.3206 13.1054 13.4213 13.2033C13.7101 13.4865 13.9745 13.7923 14.2117 14.1175C14.3147 14.259 14.4078 14.3975 14.4883 14.5294C14.1891 14.0472 13.8308 13.602 13.4213 13.2033C13.3208 13.1051 13.2169 13.0096 13.1095 12.9166ZM11.2523 11.6973C11.3267 11.7321 11.4031 11.77 11.4856 11.8131C11.7143 11.9316 11.9394 12.0628 12.1543 12.2005C11.9398 12.0622 11.7147 11.9326 11.4858 11.8131C11.4031 11.7708 11.3269 11.7313 11.2523 11.6973ZM7.62143 17.1406C7.58302 17.0539 7.55062 16.9648 7.52447 16.874C7.49168 16.7612 7.47301 16.645 7.46886 16.5278C7.48018 16.7394 7.53199 16.9471 7.62163 17.1403L7.62143 17.1406Z" fill="white"/>
<path d="M22.9215 19.0692C23.1851 19.0692 23.4277 19.0641 23.6496 19.0539C23.8715 19.0438 24.1004 19.022 24.3362 18.9884C24.3568 18.9837 24.3783 18.984 24.3987 18.9892C24.4191 18.9945 24.4378 19.0046 24.4532 19.0185C24.4686 19.0325 24.4804 19.0499 24.4872 19.0693C24.494 19.0887 24.4958 19.1094 24.4924 19.1296V19.8862C24.4924 19.9735 24.4371 20.0342 24.3259 20.0678C24.0544 20.1492 23.7758 20.2066 23.4936 20.2392C23.1937 20.2783 22.8913 20.2985 22.5887 20.2997C22.1024 20.3126 21.6181 20.2338 21.1628 20.0676C20.7931 19.9261 20.4673 19.6948 20.2163 19.3959C19.9615 19.0791 19.7804 18.7125 19.6856 18.3214C19.5691 17.8492 19.5134 17.3648 19.5195 16.8793V16.4153C19.5135 15.93 19.5676 15.4458 19.6808 14.9731C19.7719 14.5826 19.9494 14.216 20.201 13.8987C20.4493 13.5992 20.7738 13.3677 21.1425 13.227C21.5978 13.0607 22.0821 12.9819 22.5684 12.9949C23.1338 12.9988 23.6952 13.0873 24.2328 13.2572C24.2805 13.2688 24.3239 13.2933 24.3577 13.3279C24.3802 13.3607 24.3912 13.3996 24.389 13.4389V14.1653C24.3923 14.1856 24.3904 14.2063 24.3836 14.2256C24.3767 14.245 24.365 14.2625 24.3496 14.2764C24.3341 14.2904 24.3155 14.3004 24.2951 14.3057C24.2747 14.311 24.2532 14.3113 24.2326 14.3066C24.0383 14.2802 23.8267 14.26 23.598 14.2459C23.3694 14.2318 23.137 14.2253 22.901 14.2262C22.6159 14.2184 22.3319 14.2629 22.0637 14.3574C21.844 14.4407 21.654 14.5845 21.5175 14.771C21.3679 14.9851 21.2669 15.2275 21.2211 15.4822C21.1575 15.8166 21.1279 16.1563 21.1326 16.4963V16.809C21.1278 17.1491 21.1592 17.4889 21.2261 17.8228C21.2747 18.0769 21.3794 18.3179 21.533 18.529C21.6748 18.7136 21.8679 18.8553 22.0896 18.9376C22.3561 19.0312 22.6383 19.0757 22.9217 19.0688L22.9215 19.0692ZM25.6993 13.2781C25.6993 13.1705 25.7509 13.1167 25.8552 13.1167H27.145C27.1677 13.1136 27.1908 13.1156 27.2125 13.1226C27.2342 13.1296 27.2538 13.1414 27.27 13.1571C27.2861 13.1728 27.2982 13.1918 27.3054 13.2128C27.3126 13.2339 27.3148 13.2562 27.3115 13.2781V18.4935C27.3 18.6453 27.3363 18.7968 27.4156 18.9281C27.4703 18.9824 27.5374 19.0235 27.6115 19.048C27.6856 19.0726 27.7645 19.0799 27.8421 19.0693H30.3069C30.3296 19.0662 30.3525 19.0682 30.3742 19.0752C30.3958 19.0822 30.4155 19.094 30.4317 19.1097C30.4478 19.1254 30.4601 19.1445 30.4673 19.1655C30.4745 19.1865 30.4765 19.2088 30.4732 19.2307V19.9773C30.4732 20.1051 30.4145 20.1723 30.2966 20.179C29.9153 20.2126 29.4782 20.2412 28.9857 20.2647C28.4932 20.2883 27.9834 20.3001 27.4564 20.3001C27.1783 20.305 26.9005 20.2779 26.629 20.2193C26.4284 20.1774 26.2412 20.0893 26.083 19.9625C25.9412 19.8399 25.8383 19.6808 25.7864 19.5036C25.7224 19.2769 25.6928 19.0424 25.6983 18.8074L25.6993 13.2781ZM33.0537 20.0073C33.0571 20.0306 33.055 20.0544 33.0473 20.0767C33.0397 20.099 33.0267 20.1193 33.0095 20.136C32.9924 20.1526 32.9715 20.1651 32.9485 20.1726C32.9254 20.18 32.9011 20.1821 32.877 20.1788H31.6181C31.594 20.1821 31.5697 20.18 31.5466 20.1726C31.5236 20.1651 31.5027 20.1526 31.4856 20.136C31.4684 20.1193 31.4554 20.099 31.4478 20.0767C31.4401 20.0544 31.4378 20.0306 31.4412 20.0073V13.2983C31.4412 13.1773 31.5002 13.1167 31.6181 13.1167H32.877C32.9951 13.1167 33.0538 13.1773 33.0537 13.2983V20.0073ZM37.9221 19.069C38.1859 19.069 38.4287 19.0639 38.6506 19.0537C38.8725 19.0436 39.1013 19.0217 39.3371 18.9882C39.3577 18.9835 39.379 18.9838 39.3994 18.9891C39.4198 18.9943 39.4386 19.0044 39.4541 19.0183C39.4695 19.0323 39.4812 19.0497 39.4881 19.0691C39.4949 19.0885 39.4966 19.1092 39.4932 19.1294V19.886C39.4932 19.9735 39.4378 20.034 39.3267 20.0676C39.0553 20.149 38.7766 20.2064 38.4945 20.239C38.1944 20.2781 37.8923 20.2983 37.5895 20.2995C37.1032 20.3124 36.619 20.2336 36.1637 20.0674C35.794 19.9259 35.4679 19.6946 35.217 19.3957C34.9625 19.0789 34.7819 18.7123 34.6874 18.3212C34.5708 17.849 34.5149 17.3646 34.5209 16.8791V16.4151C34.5149 15.9298 34.5691 15.4456 34.6823 14.9729C34.7735 14.5825 34.9511 14.2159 35.2027 13.8985C35.4509 13.599 35.7754 13.3675 36.1442 13.2268C36.5995 13.0606 37.0837 12.9817 37.5701 12.9947C38.1355 12.9986 38.697 13.0871 39.2346 13.257C39.2823 13.2686 39.3254 13.2931 39.3592 13.3277C39.3817 13.3605 39.3927 13.3995 39.3904 13.4388V14.1652C39.3938 14.1854 39.392 14.2061 39.3852 14.2254C39.3784 14.2448 39.3668 14.2623 39.3514 14.2762C39.336 14.2902 39.3171 14.3003 39.2967 14.3055C39.2763 14.3108 39.255 14.3111 39.2344 14.3064C39.0401 14.2801 38.8285 14.2598 38.5997 14.2457C38.3709 14.2317 38.1386 14.2251 37.9029 14.226C37.6176 14.2182 37.3334 14.2627 37.0652 14.3572C36.8454 14.4405 36.6557 14.5843 36.5191 14.7709C36.3697 14.985 36.2687 15.2273 36.2227 15.482C36.1593 15.8164 36.1296 16.1561 36.1342 16.496V16.8088C36.1294 17.1489 36.1607 17.4887 36.2275 17.8226C36.2761 18.0768 36.3811 18.3177 36.5349 18.5289C36.6766 18.7135 36.8695 18.8552 37.0912 18.9374C37.3577 19.031 37.6398 19.0755 37.9231 19.0686L37.9221 19.069ZM45.9221 13.1166C45.9452 13.1144 45.9683 13.119 45.9887 13.1298C46.0091 13.1405 46.0258 13.157 46.0365 13.177C46.0465 13.1985 46.0498 13.2222 46.0462 13.2455C46.0426 13.2688 46.0322 13.2905 46.0162 13.3082L43.7898 16.5164L46.3074 19.9971C46.3208 20.0131 46.3293 20.0324 46.3321 20.0529C46.3348 20.0734 46.3317 20.0942 46.3229 20.113C46.3131 20.1352 46.2962 20.1536 46.2746 20.1654C46.253 20.1773 46.2279 20.1819 46.2034 20.1786H44.7367C44.6762 20.1815 44.6157 20.1712 44.5598 20.1484C44.5119 20.1224 44.4724 20.0839 44.4457 20.0374L42.3128 16.8896V20.0069C42.3162 20.0302 42.3141 20.0539 42.3064 20.0762C42.2987 20.0986 42.2858 20.1188 42.2686 20.1355C42.2515 20.1521 42.2306 20.1646 42.2076 20.1721C42.1846 20.1795 42.1602 20.1817 42.1362 20.1784H40.877C40.853 20.1817 40.8285 20.1796 40.8055 20.1721C40.7826 20.1647 40.7616 20.1521 40.7445 20.1355C40.7273 20.1188 40.7145 20.0986 40.7069 20.0762C40.6992 20.0539 40.6969 20.0302 40.7003 20.0069V13.2979C40.7003 13.1769 40.7592 13.1164 40.877 13.1164H42.1362C42.2539 13.1164 42.3127 13.1769 42.3128 13.2979V16.1426L44.2996 13.2371C44.3263 13.1994 44.3621 13.1687 44.4039 13.1475C44.4456 13.1264 44.4921 13.1156 44.5392 13.116L45.9221 13.1166Z" fill="white"/>
</svg>
