<svg width="69" height="70" viewBox="0 0 69 70" fill="none" xmlns="http://www.w3.org/2000/svg">
<g id="social-network/Foursquare/colored">
<path id="Shape" fill-rule="evenodd" clip-rule="evenodd" d="M25.363 16.3333H45.0504C47.9315 16.3333 48.715 18.0184 48.1084 21.1813C47.2996 25.2775 44.6966 38.2403 44.4691 39.1477C44.1911 40.2365 43.711 42.0254 41.1837 42.0254H35.2699C35.1688 42.0254 35.093 42.0254 34.9413 42.2069C34.7897 42.3883 25.4388 53.5622 25.4388 53.5622C24.6301 54.3919 23.4928 54.2622 23.0632 54.0807C22.6336 53.8993 21.8501 53.4326 21.8501 51.8512V19.7554C21.8501 18.4332 22.6588 16.3333 25.363 16.3333ZM43.0033 26.185L43.8879 21.8036C44.0395 21.0777 43.4835 20.5073 42.9275 20.5073H26.9805C26.3992 20.5073 25.919 20.9999 25.919 21.5961V46.9773C25.919 47.055 25.9695 47.0809 26.0201 47.0032C26.0201 47.0032 31.8328 39.5366 32.4899 38.707C33.147 37.8774 33.3744 37.8515 34.4864 37.8255H39.7937C40.4002 37.8255 40.8046 37.3329 40.8551 36.9441C40.931 36.5811 41.6133 33.159 41.7397 32.4849C41.8661 31.8367 41.3606 31.2404 40.7541 31.2404H34.259C33.3997 31.2404 32.6921 30.5145 32.6921 29.6331V28.6738C32.6921 27.7923 33.3997 27.0664 34.259 27.0664H41.9419C42.4726 27.0664 42.9022 26.6516 43.0033 26.185Z" fill="#FA4778"/>
</g>
</svg>
