<svg width="69" height="70" viewBox="0 0 69 70" fill="none" xmlns="http://www.w3.org/2000/svg">
<path d="M34.4999 25.6979C37.3071 25.6979 39.2008 26.9281 40.2805 27.9561L44.4998 23.7768C41.9084 21.3333 38.5364 19.8335 34.4999 19.8335C28.6528 19.8335 23.603 23.2376 21.1445 28.192L25.9784 32.0005C27.191 28.3437 30.5464 25.6979 34.4999 25.6979Z" fill="#EA4335"/>
<path d="M48.852 35.3373C48.852 34.0903 48.7523 33.1803 48.5364 32.2366H34.5V37.8651H42.7391C42.573 39.2638 41.676 41.3703 39.6827 42.7858L44.4002 46.4932C47.2241 43.8475 48.852 39.9547 48.852 35.3373Z" fill="#4285F4"/>
<path d="M25.9949 37.9997C25.6793 37.056 25.4966 36.0449 25.4966 35C25.4966 33.9552 25.6793 32.9441 25.9783 32.0004L21.1445 28.1919C20.1312 30.2478 19.5498 32.5565 19.5498 35C19.5498 37.4436 20.1312 39.7523 21.1445 41.8082L25.9949 37.9997Z" fill="#FBBC05"/>
<path d="M34.4999 50.1668C38.5364 50.1668 41.925 48.8186 44.4001 46.4931L39.6825 42.7857C38.4201 43.6788 36.7257 44.3024 34.4999 44.3024C30.5464 44.3024 27.191 41.6566 25.995 37.9998L21.1611 41.8083C23.6196 46.7627 28.6527 50.1668 34.4999 50.1668Z" fill="#34A853"/>
</svg>
