<svg width="51" height="33" viewBox="0 0 51 33" fill="none" xmlns="http://www.w3.org/2000/svg">
<rect x="0.5" y="0.5" width="50" height="32" rx="3" fill="#2F4653"/>
<path d="M33.8349 31.6452H3.10409C2.23946 31.6452 1.5415 30.8484 1.5415 29.8614V4.40062C1.5415 3.41358 2.23946 2.61682 3.10409 2.61682H41.6478C42.5124 2.61682 43.2104 3.41358 43.2104 4.40062V17.131L35.3975 29.8614C35.3975 30.8484 34.6995 31.6452 33.8349 31.6452Z" fill="white"/>
<path d="M18.976 2.61526C24.3138 2.61526 29.6454 2.63429 34.9832 2.60257C36.4457 2.59623 37.9146 2.58354 39.3772 2.56451C39.5022 2.56451 39.6272 2.58354 39.7522 2.58989C40.346 2.64063 40.5022 3.12906 40.621 3.63652C41.8835 8.99022 41.4835 14.6928 39.2396 19.7357C38.6459 21.0805 37.9146 22.3428 37.1083 23.5607C36.477 24.5185 35.7832 25.4319 35.0332 26.301C34.4706 26.948 33.8769 27.5633 33.2518 28.1405C32.0705 29.2252 30.8142 30.2147 29.3516 30.8935C28.5766 31.255 27.764 31.4834 26.914 31.6039C26.0702 31.7244 25.2201 31.7244 24.3763 31.7054C19.7011 31.6039 15.0196 31.68 10.3443 31.661C7.92545 31.6483 5.50031 31.661 3.08143 31.661C2.83142 31.661 2.58141 31.642 2.33764 31.5595C1.84387 31.3946 1.5376 30.9569 1.5126 30.367C1.50635 30.202 1.50635 30.0371 1.50635 29.8659C1.50635 21.3469 1.50635 12.8279 1.50635 4.30891C1.50635 4.06786 1.5126 3.82048 1.55635 3.57943C1.66886 2.99586 2.12513 2.64698 2.70641 2.60892C2.90642 2.59623 3.11268 2.60257 3.3127 2.60257C8.53798 2.61526 13.757 2.61526 18.976 2.61526Z" fill="#2F4653"/>
<path d="M40.4582 25.7237C40.7457 25.6412 40.9832 25.4763 41.2082 25.2923C42.152 24.5248 42.8583 23.5543 43.4584 22.495C45.621 18.6763 46.8961 14.3946 47.1461 9.97974C47.1711 9.52937 47.1773 9.079 47.1898 8.63497C47.1898 8.56519 47.1773 8.49542 47.2336 8.42564C47.4086 8.47639 47.5586 8.56519 47.7024 8.68572C49.3774 10.1954 49.665 13.0562 49.4774 15.1685C49.0462 20.1733 46.321 25.5207 41.9458 28.1087C41.8458 28.1658 41.7458 28.2293 41.6395 28.28C40.9645 28.6479 40.2644 28.9334 39.5394 29.1808C39.4019 29.2252 39.2644 29.2759 39.1331 29.3203C39.7269 29.2886 40.5519 29.1808 41.4832 28.8699C43.9771 28.039 45.9648 26.1614 47.3461 23.9349C47.6836 23.3894 47.9899 22.8248 48.2899 22.2539C48.3086 22.2222 48.3274 22.1842 48.3711 22.1715C48.4274 22.1715 48.4461 22.2159 48.4649 22.2603C49.1587 23.8841 48.9774 25.5524 48.0024 27.0177C46.0773 29.9102 42.0145 31.6292 38.6518 31.6483C35.5517 31.661 32.4577 31.6546 29.3576 31.6546C29.2576 31.6546 29.1138 31.7054 29.0825 31.5658C29.0513 31.4199 29.2138 31.4326 29.3013 31.3945C34.0016 29.1998 37.558 25.3748 39.8769 20.7062C41.8895 16.6465 42.9021 12.054 42.5083 7.50587C42.3833 6.04692 42.1145 4.60701 41.7083 3.20515C41.6833 3.12269 41.652 3.04022 41.6333 2.95142C41.577 2.64694 41.6645 2.57082 41.9708 2.60254C42.7333 2.67866 43.4021 2.96411 44.0021 3.43985C45.1335 4.34693 45.571 5.98349 45.8272 7.35998C46.3148 9.94168 45.8147 12.7961 45.221 15.3208C44.4459 18.6066 43.1396 21.8162 41.2582 24.6136C41.0582 24.9117 40.827 25.1845 40.6082 25.4763C40.5644 25.5588 40.5144 25.6412 40.4582 25.7237Z" fill="url(#paint0_linear_1624_2162)"/>
<path d="M13.6759 14.8831C13.6696 14.4772 13.5446 14.0712 13.1946 13.8428C12.8508 13.6208 12.3946 13.6272 12.1258 13.9633C12.1071 13.9887 12.0571 14.0395 12.0696 14.0775C12.0821 14.1156 12.1696 14.1092 12.2008 14.1283C12.2633 14.16 12.2883 14.2234 12.2821 14.2869C12.2821 14.363 12.2821 15.1051 12.2758 16.1201C11.3945 16.1137 10.507 16.1074 9.62567 16.101C9.60692 15.879 9.60067 15.6316 9.61942 15.3589C9.63192 15.1115 9.66317 14.8577 9.71317 14.6104C9.73192 14.5025 9.75693 14.3947 9.78818 14.2869C9.81943 14.1727 9.90068 14.0268 9.89443 13.9063C9.89443 13.8872 9.88818 13.8745 9.88193 13.8619C9.85693 13.8301 9.81318 13.8365 9.77568 13.8492C9.55066 13.9063 9.3319 14.0268 9.15689 14.1854C9.10689 14.2361 8.96313 14.3693 8.83187 14.604C8.49436 15.2193 8.4631 16.0947 8.4631 16.0947C8.44435 16.6592 8.4256 17.8074 9.01939 18.9999C9.01939 18.9999 9.43816 19.8372 10.0319 20.0402C10.1507 20.0782 10.1819 20.0529 10.1944 20.0402C10.2382 19.9767 10.1382 19.8753 10.1132 19.8309C10.0569 19.7484 10.0132 19.6532 9.97569 19.5644C9.89443 19.3741 9.83818 19.1712 9.80068 18.9618C9.67567 18.3402 9.59442 17.7059 9.61317 17.0715H12.2883C12.2883 17.8708 12.2883 18.67 12.2883 19.4693C12.2883 19.6279 12.3508 19.7801 12.4946 19.8562C12.5821 19.9006 12.6821 19.9197 12.7758 19.9323C12.9446 19.9514 13.1196 19.9641 13.2884 19.9323C13.3884 19.9133 13.4821 19.8753 13.5571 19.8055C13.6759 19.6913 13.6759 19.5454 13.6759 19.3932C13.6759 18.188 13.6884 16.9891 13.6884 15.7839C13.6821 15.4794 13.6821 15.1813 13.6759 14.8831Z" fill="url(#paint1_linear_1624_2162)"/>
<path d="M10.013 20.3447C8.93171 20.0212 8.51294 18.8667 8.28168 17.8581C8.23167 17.6361 8.18167 17.4204 8.15667 17.1984C8.06916 16.5197 8.07542 15.7775 8.28793 15.1242C8.12542 15.1622 8.05041 15.3081 7.95041 15.4223C7.60039 15.8473 7.56914 16.3484 7.55664 16.8432C7.51913 18.004 7.93166 18.8286 8.02541 19.0063C8.23792 19.4059 8.46294 19.666 8.53169 19.7421C8.7692 20.0148 9.01297 20.1988 9.20048 20.3257C9.05672 20.2876 8.84421 20.2178 8.62545 20.0783C8.41918 19.9514 8.27543 19.8055 8.17542 19.6977C8.03791 19.5201 7.93791 19.3551 7.8754 19.2473C7.70664 18.9428 7.48788 18.5686 7.38163 18.0675C7.35038 17.9279 7.33162 17.782 7.27537 17.7757C7.19412 17.7693 7.10661 18.0548 7.08786 18.1182C7.02536 18.3212 7.00661 18.5051 7.01286 18.6003C7.01911 18.9809 7.30037 19.723 7.96916 20.2242C7.96916 20.2242 8.55669 20.6618 9.563 20.6999C9.60675 20.6999 9.85051 20.6936 10.0255 20.5667C10.1068 20.4906 10.1693 20.3954 10.013 20.3447Z" fill="url(#paint2_linear_1624_2162)"/>
<path d="M8.28809 15.1178V15.1242L8.30058 15.1051L8.28809 15.1178Z" fill="url(#paint3_linear_1624_2162)"/>
<path d="M27.489 14.7435C27.4953 14.6039 27.489 14.3946 27.439 14.1472C27.4327 14.1218 27.4265 14.0584 27.3952 13.9823C27.3765 13.9442 27.3327 13.8364 27.2202 13.7666C27.1577 13.7286 27.0952 13.7032 27.0265 13.7032C26.9765 13.7032 26.9265 13.7095 26.8827 13.7095C26.814 13.7095 26.7452 13.7095 26.6827 13.7095C26.5515 13.7095 26.4202 13.7095 26.2889 13.7095C26.1702 13.7159 26.0639 13.7539 25.9764 13.8427C25.8764 13.9506 25.7952 14.0965 25.6639 14.4263C25.6389 14.4771 25.6264 14.5278 25.6139 14.5532C25.5639 14.661 24.8576 16.2151 24.5888 16.6655C24.5701 16.6972 24.5263 16.7733 24.4701 16.767C24.4138 16.767 24.3701 16.6972 24.3513 16.6655C24.0826 16.2151 23.3763 14.661 23.3263 14.5532C23.3138 14.5215 23.295 14.4771 23.2763 14.4263C23.145 14.1028 23.0638 13.9506 22.9638 13.8427C22.8825 13.7539 22.77 13.7159 22.6512 13.7095C22.52 13.7032 22.3887 13.7095 22.2575 13.7095C22.1887 13.7095 22.12 13.7095 22.0575 13.7095C22.0075 13.7095 21.9575 13.7095 21.9137 13.7032C21.845 13.7032 21.7762 13.7286 21.7199 13.7666C21.6074 13.8364 21.5637 13.9442 21.5449 13.9823C21.5137 14.0584 21.5074 14.1218 21.5012 14.1472C21.4512 14.3946 21.4449 14.6039 21.4512 14.7435C21.4012 16.342 21.3512 17.9405 21.2949 19.5326C21.2949 19.558 21.3012 19.596 21.3137 19.6341C21.3949 19.8688 21.6887 19.983 21.9137 19.983C22.1387 19.983 22.4137 19.8752 22.5075 19.6658C22.5075 19.6658 22.5262 19.6214 22.5387 19.577C22.6075 19.2535 22.645 16.6338 22.6575 15.492C23.2763 16.7733 23.7576 17.7311 23.9763 18.1561C24.0201 18.2449 24.1201 18.4162 24.2951 18.4796C24.3451 18.4987 24.4013 18.505 24.4638 18.505C24.5201 18.505 24.5763 18.4923 24.6326 18.4796C24.8076 18.4226 24.9076 18.2449 24.9514 18.1561C25.1764 17.7311 25.6577 16.7733 26.2702 15.492C26.2827 16.6338 26.3202 19.2535 26.3889 19.577C26.4014 19.6214 26.4139 19.6658 26.4202 19.6658C26.5139 19.8752 26.789 19.9893 27.014 19.983C27.239 19.983 27.5328 19.8625 27.614 19.6341C27.6265 19.596 27.6328 19.558 27.6328 19.5326C27.5953 17.9405 27.539 16.342 27.489 14.7435Z" fill="url(#paint4_linear_1624_2162)"/>
<path d="M16.5135 18.5241C16.526 18.5241 16.5385 18.5304 16.551 18.5304C16.5385 18.5558 16.5073 18.5431 16.5135 18.5241Z" fill="white"/>
<path d="M20.0761 13.8999C19.9511 13.735 19.7261 13.7286 19.5198 13.7223C19.3198 13.716 19.0698 13.7096 18.9073 13.8872C18.8198 13.9887 18.7948 14.1029 18.7885 14.1727C18.7823 15.3525 18.7823 16.5323 18.776 17.7122C18.776 17.8264 18.7698 18.042 18.651 18.2831C18.5322 18.5368 18.3572 18.6764 18.3135 18.7144C18.3135 18.7144 18.0197 18.9491 17.6384 18.9808C17.6009 18.9808 17.5572 18.9872 17.5572 18.9872C17.5447 18.9872 17.5384 18.9872 17.5259 18.9872C17.5134 18.9872 17.5072 18.9872 17.4947 18.9872C17.4947 18.9872 17.4572 18.9872 17.4134 18.9808C17.0322 18.9491 16.7384 18.7144 16.7384 18.7144C16.6946 18.6764 16.5196 18.5368 16.4009 18.2831C16.2884 18.042 16.2759 17.8264 16.2759 17.7122C16.2696 16.5323 16.2696 15.3525 16.2634 14.1727C16.2571 14.1029 16.2321 13.9824 16.1446 13.8872C15.9883 13.7096 15.7321 13.716 15.5321 13.7223C15.3196 13.7286 15.1008 13.735 14.9758 13.8999C14.8758 14.0268 14.882 14.1854 14.8883 14.2551C14.8883 15.4921 14.8883 16.7226 14.8883 17.9596C14.8883 18.3021 14.9883 18.7588 15.3133 19.1965C15.6758 19.6849 16.2009 19.9006 16.3571 19.9577C16.6821 20.0782 17.0009 20.1163 17.1009 20.1226C17.2697 20.1417 17.4134 20.1416 17.5197 20.1353C17.6259 20.1416 17.7697 20.1353 17.9385 20.1226C18.0385 20.1099 18.3572 20.0782 18.6822 19.9577C18.8448 19.8943 19.3635 19.6786 19.7261 19.1965C20.0511 18.7652 20.1511 18.3085 20.1511 17.9596C20.1511 16.7226 20.1511 15.4921 20.1511 14.2551C20.1698 14.1854 20.1761 14.0268 20.0761 13.8999Z" fill="url(#paint5_linear_1624_2162)"/>
<path d="M16.8135 20.0529C16.826 20.0529 16.8322 20.0592 16.8447 20.0592L16.826 20.0719L16.8135 20.0529Z" fill="white"/>
<path d="M34.552 15.676C34.377 15.0797 34.0145 14.5596 33.527 14.1853C32.9707 13.7603 32.2831 13.5383 31.5956 13.5256C30.9018 13.5447 30.2205 13.7667 29.6643 14.1853C29.1767 14.5596 28.8142 15.0797 28.6392 15.676C28.1392 17.3823 28.8955 19.5581 30.7018 20.0401C30.9956 20.1163 31.2956 20.148 31.5956 20.1416C31.8956 20.148 32.1956 20.1163 32.4894 20.0401C34.2957 19.5644 35.052 17.3823 34.552 15.676ZM33.2019 17.5853C33.0144 18.3909 32.4832 19.2599 31.5894 19.2726C30.6956 19.2663 30.1643 18.3972 29.9768 17.5853C29.7955 16.8051 29.8268 15.8917 30.258 15.1939C30.5581 14.7118 31.0643 14.4264 31.5894 14.4264C32.1206 14.4327 32.6269 14.7182 32.9207 15.1939C33.352 15.8917 33.3895 16.8051 33.2019 17.5853Z" fill="url(#paint6_linear_1624_2162)"/>
<defs>
<linearGradient id="paint0_linear_1624_2162" x1="26.8267" y1="21.5634" x2="50.1502" y2="14.5084" gradientUnits="userSpaceOnUse">
<stop offset="0.329" stop-color="#9C8837"/>
<stop offset="0.5606" stop-color="#F7E59E"/>
<stop offset="0.6012" stop-color="#EFDD95"/>
<stop offset="0.6639" stop-color="#DDCA81"/>
<stop offset="0.7405" stop-color="#C4B062"/>
<stop offset="0.7875" stop-color="#B39F4D"/>
</linearGradient>
<linearGradient id="paint1_linear_1624_2162" x1="12.3956" y1="17.5764" x2="8.06532" y2="14.3475" gradientUnits="userSpaceOnUse">
<stop offset="0.329" stop-color="#9C8837"/>
<stop offset="0.5606" stop-color="#F7E59E"/>
<stop offset="0.6012" stop-color="#EFDD95"/>
<stop offset="0.6639" stop-color="#DDCA81"/>
<stop offset="0.7405" stop-color="#C4B062"/>
<stop offset="0.7875" stop-color="#B39F4D"/>
</linearGradient>
<linearGradient id="paint2_linear_1624_2162" x1="10.795" y1="19.7227" x2="6.46477" y2="16.4937" gradientUnits="userSpaceOnUse">
<stop offset="0.329" stop-color="#9C8837"/>
<stop offset="0.5606" stop-color="#F7E59E"/>
<stop offset="0.6012" stop-color="#EFDD95"/>
<stop offset="0.6639" stop-color="#DDCA81"/>
<stop offset="0.7405" stop-color="#C4B062"/>
<stop offset="0.7875" stop-color="#B39F4D"/>
</linearGradient>
<linearGradient id="paint3_linear_1624_2162" x1="12.0678" y1="18.0125" x2="7.73857" y2="14.7862" gradientUnits="userSpaceOnUse">
<stop offset="0.329" stop-color="#9C8837"/>
<stop offset="0.5606" stop-color="#F7E59E"/>
<stop offset="0.6012" stop-color="#EFDD95"/>
<stop offset="0.6639" stop-color="#DDCA81"/>
<stop offset="0.7405" stop-color="#C4B062"/>
<stop offset="0.7875" stop-color="#B39F4D"/>
</linearGradient>
<linearGradient id="paint4_linear_1624_2162" x1="28.2675" y1="18.9186" x2="21.5666" y2="15.4163" gradientUnits="userSpaceOnUse">
<stop offset="0.329" stop-color="#9C8837"/>
<stop offset="0.5606" stop-color="#F7E59E"/>
<stop offset="0.6012" stop-color="#EFDD95"/>
<stop offset="0.6639" stop-color="#DDCA81"/>
<stop offset="0.7405" stop-color="#C4B062"/>
<stop offset="0.7875" stop-color="#B39F4D"/>
</linearGradient>
<linearGradient id="paint5_linear_1624_2162" x1="20.8078" y1="18.5867" x2="14.0946" y2="14.4452" gradientUnits="userSpaceOnUse">
<stop offset="0.329" stop-color="#9C8837"/>
<stop offset="0.5606" stop-color="#F7E59E"/>
<stop offset="0.6012" stop-color="#EFDD95"/>
<stop offset="0.6639" stop-color="#DDCA81"/>
<stop offset="0.7405" stop-color="#C4B062"/>
<stop offset="0.7875" stop-color="#B39F4D"/>
</linearGradient>
<linearGradient id="paint6_linear_1624_2162" x1="36.2877" y1="19.6209" x2="27.9473" y2="14.8509" gradientUnits="userSpaceOnUse">
<stop offset="0.329" stop-color="#9C8837"/>
<stop offset="0.5606" stop-color="#F7E59E"/>
<stop offset="0.6012" stop-color="#EFDD95"/>
<stop offset="0.6639" stop-color="#DDCA81"/>
<stop offset="0.7405" stop-color="#C4B062"/>
<stop offset="0.7875" stop-color="#B39F4D"/>
</linearGradient>
</defs>
</svg>
