<svg width="69" height="70" viewBox="0 0 69 70" fill="none" xmlns="http://www.w3.org/2000/svg">
<path d="M40.5684 19.868C40.3932 19.7786 40.25 19.869 40.25 20.0691V44.6759L50.7948 50.0632C51.3201 50.3317 51.75 50.0602 51.75 49.4599V25.7733C51.75 25.6553 51.6847 25.5474 51.5815 25.4947L40.5684 19.868Z" fill="#32FC8D"/>
<path d="M28.75 38.5403L40.1177 20.0179C40.2208 19.8499 40.4492 19.7846 40.6252 19.8728L51.6059 25.378C51.7427 25.4465 51.7914 25.618 51.7113 25.7486L40.3051 44.3335L28.75 38.5403Z" fill="#0BE370"/>
<path d="M17.9965 19.9931C17.2789 19.635 17.0358 19.9001 17.4563 20.5823L28.471 38.4531L40.25 44.3335L28.5471 25.3458C28.4973 25.265 28.4259 25.1998 28.341 25.1574L17.9965 19.9931Z" fill="#14C767"/>
<path d="M28.75 49.4569C28.75 50.0597 28.32 50.3324 27.7947 50.0628L17.8869 44.9793C17.5366 44.7996 17.25 44.3238 17.25 43.9219V20.3068C17.25 19.9049 17.5366 19.7231 17.8869 19.9029L28.6082 25.4038C28.6951 25.4484 28.75 25.5394 28.75 25.6392V49.4569Z" fill="#00AB6C"/>
</svg>
