<svg width="51" height="33" viewBox="0 0 51 33" fill="none" xmlns="http://www.w3.org/2000/svg">
<rect x="0.5" y="0.5" width="50" height="32" rx="3" fill="url(#paint0_linear_1624_2181)"/>
<g clip-path="url(#clip0_1624_2181)">
<path fill-rule="evenodd" clip-rule="evenodd" d="M46.2638 15.4023C46.5613 15.8471 46.5913 16.5482 46.2755 17.0915C45.9936 17.5768 44.3062 19.4389 43.7571 20.0373C43.2811 20.5571 42.6386 21.0776 42.0063 21.0776H28.7664C26.9771 21.0776 26.8691 20.4437 26.8691 19.0105V13.1967C26.8691 11.733 27.2826 11.3099 28.5045 11.3099H42.0063C42.6386 11.3099 43.2014 11.6471 43.8477 12.3339C44.3964 12.9166 46.0356 15.0601 46.2638 15.4023Z" fill="#33CCCC"/>
<path fill-rule="evenodd" clip-rule="evenodd" d="M46.2755 17.0916C46.5913 16.5482 46.5613 15.8472 46.2638 15.4023C46.0356 15.0601 44.3964 12.9167 43.8477 12.3339C43.2014 11.6472 42.6386 11.3099 42.0063 11.3099H28.5045C27.2826 11.3099 26.8691 11.733 26.8691 13.1967V19.0105C26.8691 20.4437 26.9771 21.0776 28.7664 21.0776H42.0063C42.6386 21.0776 43.2811 20.5571 43.7571 20.0373C44.3062 19.439 45.9936 17.5768 46.2755 17.0916ZM29.8706 13.5196V13.5579C29.3184 13.8851 28.7212 14.259 28.1826 15.0638V13.5274C28.1826 13.2965 28.1988 13.1479 28.456 13.1479H29.5625C29.8556 13.1479 29.8706 13.3327 29.8706 13.5196ZM37.2934 19.0271V19.1096C37.2934 19.1172 37.2936 19.1256 37.2938 19.1347C37.2964 19.246 37.3014 19.4555 36.9701 19.4557H35.8178C35.5354 19.4557 35.5426 19.2132 35.5455 19.1161C35.5458 19.1079 35.546 19.1006 35.546 19.0947V18.4802H35.5471V15.4895C35.5473 15.0772 35.4915 14.7836 35.3799 14.6084C35.2683 14.4332 35.0863 14.3456 34.834 14.3456C34.2884 14.3456 33.8997 14.8724 33.6739 15.1784C33.6458 15.2164 33.6203 15.2509 33.5973 15.2807V19.0272H33.596V19.1097C33.596 19.1173 33.5962 19.1257 33.5964 19.1348C33.599 19.246 33.604 19.4555 33.2726 19.4555H32.1354C31.8534 19.4555 31.8606 19.2132 31.8635 19.1161C31.8637 19.1077 31.864 19.1005 31.864 19.0946V18.48H31.8653V15.4893C31.8648 15.0771 31.8101 14.7834 31.701 14.6082C31.592 14.4331 31.4136 14.3455 31.166 14.3455C30.5807 14.3455 30.1995 14.893 29.9885 15.1959C29.9669 15.227 29.947 15.2555 29.929 15.2805V19.1096C29.929 19.1172 29.9292 19.1256 29.9294 19.1347C29.932 19.2459 29.9369 19.4554 29.6058 19.4554H28.4539C28.1717 19.4554 28.179 19.2131 28.1819 19.116C28.1821 19.1077 28.1823 19.1004 28.1823 19.0945V16.727C28.1823 15.3099 29.715 13.9269 30.0534 13.6215C30.0855 13.5926 30.1068 13.5733 30.1151 13.5646C30.5457 13.1945 31.1532 13.0032 31.6757 13.0032C32.1271 13.0033 32.4947 13.0934 32.7784 13.2738C33.0621 13.4541 33.2742 13.7349 33.4149 14.1162C33.7012 13.7653 33.9996 13.4921 34.3102 13.2965C34.6198 13.1012 34.9753 12.9997 35.3369 13.0032C36.6417 13.0031 37.2942 13.7784 37.2942 15.3292V19.0271H37.2934ZM41.031 19.401C42.2467 19.401 43.2278 18.7575 43.6373 17.6061V17.606C43.665 17.5294 43.5953 17.369 43.4382 17.3691H42.4757C42.4757 17.3691 42.2397 17.3581 42.1246 17.5553C41.8597 18.0085 41.5556 18.2398 41.0423 18.2398C40.2007 18.2398 39.724 17.6824 39.7018 16.6492H43.4382C43.7326 16.6492 43.8015 16.4317 43.7925 16.1855C43.7225 14.2586 42.62 13.0623 40.9762 13.0623C39.3145 13.0623 38.107 14.4089 38.107 16.2667C38.107 18.1472 39.2701 19.401 41.031 19.401ZM39.7018 15.6049C39.7905 14.7686 40.2777 14.2578 40.9762 14.2578C41.7621 14.2578 42.139 14.8734 42.2055 15.6049H39.7018Z" fill="white"/>
<path fill-rule="evenodd" clip-rule="evenodd" d="M11.3772 11.363C11.2292 11.1166 11.0372 10.9022 10.8117 10.7315C10.5862 10.566 10.3385 10.4362 10.0767 10.3463C9.78586 10.2473 9.48548 10.1821 9.18102 10.1519C8.83269 10.1161 8.48288 10.0988 8.13291 10.1001H5.06574C4.78994 10.1001 4.50084 10.2893 4.50084 10.6463V15.8431C4.88938 16.7092 5.64624 17.6288 6.50673 18.0682V17.0376C6.50673 16.4937 6.89869 16.3722 7.06082 16.3722H7.96771C9.21691 16.3722 10.1704 16.0981 10.828 15.5499C11.4857 15.0024 11.8145 14.1893 11.8145 13.1104C11.8164 12.7987 11.7818 12.4879 11.7115 12.1849C11.6416 11.8945 11.5288 11.6172 11.3772 11.363ZM9.58986 14.0319C9.48396 14.224 9.32599 14.379 9.13594 14.4774C8.92995 14.5801 8.70743 14.6417 8.47981 14.659C8.23192 14.6821 7.97594 14.6937 7.71186 14.6937H6.85004C6.63923 14.6937 6.50673 14.5144 6.50673 14.2499V12.1252C6.50673 11.8869 6.65541 11.7869 6.83367 11.7869H7.71186C7.99793 11.7869 8.26619 11.7956 8.51668 11.8128C8.74212 11.8236 8.96351 11.8794 9.16884 11.9774C9.35186 12.0684 9.50333 12.2165 9.60238 12.4013C9.70676 12.5913 9.75894 12.8595 9.75902 13.2059C9.75902 13.5575 9.70263 13.8329 9.58986 14.0319ZM6.50673 18.4041C5.56033 18.0089 4.92586 17.5376 4.50084 17.0703V19.5791C4.50084 19.5791 4.46584 19.9882 4.84695 19.9882H6.18508C6.55216 19.9882 6.50689 19.5791 6.50689 19.5791V18.4041H6.50673ZM25.4706 12.8339H24.2697C24.0256 12.8339 23.8648 12.9411 23.768 13.2216C23.6712 13.5021 22.3983 17.2064 22.3983 17.2064C22.3983 17.2064 21.1807 13.5786 21.0849 13.2977C20.989 13.0168 20.8317 12.8339 20.5482 12.8339H19.4447C19.0555 12.8339 19.0555 13.1535 19.1037 13.2802C19.1429 13.3826 20.654 17.7104 21.2296 19.3592C21.3653 19.7484 21.4189 19.8656 21.4231 20.0098C21.4273 20.154 21.287 20.4567 21.19 20.6305C21.1455 20.7098 21.0944 20.7849 21.0372 20.8548C22.1656 20.5018 23.466 19.2209 24.1385 17.8333C24.8035 15.8994 25.6805 13.3448 25.7185 13.2141C25.7797 13.0025 25.7791 12.8339 25.4706 12.8339ZM20.1678 21.2228C20.0635 21.2209 19.9595 21.213 19.8561 21.1993C19.7295 21.1818 19.4926 21.2065 19.4926 21.4232V22.3921C19.4926 22.7619 19.6618 22.7866 19.7549 22.8085C20.0352 22.8695 20.321 22.8983 20.6072 22.8945C20.9866 22.8945 21.3167 22.8224 21.5976 22.6782C21.8812 22.5315 22.1339 22.3271 22.3408 22.077C22.5689 21.7985 22.7618 21.4903 22.9144 21.1603C23.0821 20.8056 23.243 20.4149 23.3972 19.9881C23.3972 19.9881 23.4634 19.7953 23.5722 19.4794C23.241 19.8288 21.6797 21.3758 20.1678 21.2228ZM18.3643 13.9841C18.2991 13.8222 18.2101 13.6719 18.1005 13.5387C17.9913 13.4109 17.8662 13.2988 17.7287 13.2055C17.5802 13.1047 17.4228 13.0192 17.2585 12.9503C17.0907 12.8818 16.9182 12.827 16.7425 12.7861C16.5426 12.7404 16.3398 12.71 16.1358 12.6953C15.9154 12.6782 15.6677 12.6695 15.3926 12.6694C13.5733 12.6694 12.5374 13.2702 12.2848 14.4718C12.2027 14.8447 12.5557 14.8666 12.5557 14.8666H13.6749C13.967 14.8666 13.9545 14.7682 14.0963 14.4922C14.1473 14.3419 14.2392 14.2105 14.3607 14.114C14.5755 13.9411 14.8974 13.8547 15.3265 13.8547C15.7394 13.8547 16.0393 13.9382 16.2263 14.1053C16.4133 14.2723 16.5234 14.5261 16.5565 14.8666C16.5565 15.2615 16.4387 15.5249 15.9819 15.5249C14.8682 15.4826 13.6715 15.6143 12.9975 16.0181C12.3234 16.4219 11.9424 17.2113 11.9424 18.059C11.9424 18.4048 12.0016 18.7076 12.1199 18.9674C12.2346 19.2221 12.4042 19.4456 12.6153 19.6204C12.8393 19.803 13.0961 19.9368 13.3705 20.014C13.6823 20.1034 14.0045 20.1472 14.3279 20.1441C14.8122 20.1441 15.2402 20.0806 15.6117 19.9536C15.9831 19.8269 16.5579 19.4091 16.6311 19.3482V19.5709C16.6311 19.7916 16.6954 19.9884 16.9474 19.9884H18.2489C18.5123 19.9884 18.5709 19.7916 18.5709 19.5494V15.3599C18.5732 15.0994 18.5566 14.8392 18.5214 14.5814C18.4935 14.3761 18.4407 14.1754 18.3643 13.9841ZM16.5896 18.0918C16.5896 18.0918 16.2535 18.8212 15.0541 18.8212C14.7241 18.8212 14.4559 18.7434 14.2493 18.5877C14.0428 18.4321 13.9395 18.1898 13.9397 17.861C13.9397 17.434 14.1076 17.1325 14.4434 16.9567C14.7789 16.781 15.4506 16.6806 15.954 16.6929C16.4573 16.7052 16.5896 17.0376 16.5896 17.267V18.0919V18.0918Z" fill="white"/>
</g>
<defs>
<linearGradient id="paint0_linear_1624_2181" x1="67.0209" y1="9.73949" x2="55.4434" y2="61.7668" gradientUnits="userSpaceOnUse">
<stop offset="0.47231" stop-color="#00CCCC"/>
<stop offset="1" stop-color="#3399FF"/>
</linearGradient>
<clipPath id="clip0_1624_2181">
<rect width="42" height="12.8" fill="white" transform="translate(4.5 10.1)"/>
</clipPath>
</defs>
</svg>
