<svg width="51" height="33" viewBox="0 0 51 33" fill="none" xmlns="http://www.w3.org/2000/svg">
<g id="U/Uzcard">
<rect x="0.5" y="0.5" width="50" height="32" rx="3" fill="#1C50AE"/>
<path id="Vector" fill-rule="evenodd" clip-rule="evenodd" d="M32.2125 11.2709C32.2125 13.8391 31.632 15.7532 30.4717 17.0005C29.3111 18.2475 27.5181 18.8709 25.1009 18.8709C22.8425 18.8709 21.1291 18.2475 19.9609 17.0005C18.7922 15.7535 18.2085 13.8728 18.2085 11.3585V2.92286C18.2087 2.82789 18.2461 2.73688 18.3126 2.66973C18.379 2.60258 18.469 2.56475 18.5629 2.56451H22.6581C22.752 2.5649 22.8419 2.60278 22.9083 2.6699C22.9747 2.73702 23.0121 2.82794 23.0125 2.92286V11.5428C23.0125 12.5695 23.2003 13.3596 23.5827 13.917C23.8689 14.3007 24.2771 14.5731 24.7385 14.6884C25.1999 14.8038 25.6865 14.7549 26.1166 14.5502C26.4017 14.4146 26.6524 14.215 26.8496 13.9665C27.2235 13.4436 27.4096 12.673 27.4084 11.6543V10.0401H32.2125V11.2709Z" fill="white"/>
<path id="Vector_2" fill-rule="evenodd" clip-rule="evenodd" d="M31.8421 9.09723H27.4097V2.93996C27.4099 2.84046 27.4491 2.7451 27.5187 2.67474C27.5883 2.60438 27.6826 2.56475 27.781 2.56451H28.4446C28.4453 3.5742 28.8426 4.54223 29.5492 5.25576C30.2558 5.96951 31.2137 6.37048 32.2125 6.3706H32.2137V9.09723H31.8421Z" fill="white"/>
<path id="Vector_3" fill-rule="evenodd" clip-rule="evenodd" d="M29.3882 2.56451H31.8421C31.9405 2.56483 32.0348 2.60448 32.1043 2.67482C32.1739 2.74517 32.2131 2.84048 32.2134 2.93996V5.42328C31.4643 5.42312 30.7459 5.12222 30.2162 4.58671C29.6864 4.0512 29.3886 3.32491 29.3882 2.56746V2.56451Z" fill="#F4821F"/>
<path id="Vector_4" fill-rule="evenodd" clip-rule="evenodd" d="M10.6884 29.4428C11.9378 29.4428 12.5407 28.721 12.5407 27.6605V25.1048H11.6468V27.6347C11.6468 27.9 11.5453 28.1545 11.3647 28.3421C11.1841 28.5297 10.9391 28.6351 10.6837 28.6351C10.4282 28.6351 10.1832 28.5297 10.0026 28.3421C9.82198 28.1545 9.72051 27.9 9.72051 27.6347V25.1048H8.83398V27.6682C8.83398 28.7154 9.43688 29.4442 10.6863 29.4442L10.6884 29.4428ZM17.9365 29.366V28.5681H15.9551L17.8942 25.8315V25.1027H14.8105V25.9013H16.7495L14.8105 28.6302V29.3632L17.9365 29.366ZM22.1137 29.4428C22.4653 29.4511 22.8122 29.3575 23.1155 29.1724C23.4187 28.9873 23.6662 28.7181 23.8303 28.3949L23.0775 28.018C22.9859 28.2028 22.8475 28.3582 22.6772 28.4674C22.5069 28.5766 22.3112 28.6356 22.111 28.6379C21.8532 28.6244 21.6045 28.5343 21.3945 28.3784C21.1844 28.2226 21.0218 28.0074 20.926 27.7584C20.8301 27.5095 20.805 27.2372 20.8536 26.9738C20.9022 26.7105 21.0226 26.4672 21.2003 26.2727C21.4389 26.0123 21.7649 25.8566 22.111 25.8392C22.3108 25.8428 22.506 25.9022 22.676 26.0111C22.8461 26.1201 22.9848 26.2746 23.0775 26.4584L23.8303 26.0745C23.6664 25.7517 23.4187 25.4832 23.1153 25.2993C22.8119 25.1154 22.4649 25.0236 22.1137 25.0343C21.7582 25.0235 21.4057 25.1057 21.0886 25.2732C20.7716 25.4407 20.5001 25.6882 20.2991 25.993C20.0981 26.2978 19.974 26.6502 19.9381 27.0178C19.9023 27.3853 19.9559 27.7564 20.094 28.0969C20.2606 28.5067 20.5427 28.8545 20.9032 29.0947C21.2636 29.335 21.6856 29.4563 22.1137 29.4428ZM29.749 29.366L28.1675 25.1048H27.072L25.4837 29.366H26.4812L26.7393 28.6442H28.5002L28.7522 29.366H29.749ZM28.2596 27.8455H26.9792L27.6197 26.0116L28.2596 27.8455ZM35.6489 30.4355L34.1433 27.7443C34.4124 27.6769 34.6499 27.5131 34.8141 27.2817C34.9784 27.0503 35.0588 26.7662 35.0413 26.4794C35.0482 26.2921 35.0169 26.1054 34.9493 25.9316C34.8818 25.7578 34.7795 25.6009 34.6494 25.4711C34.5192 25.3413 34.364 25.2416 34.1941 25.1786C34.0242 25.1156 33.8433 25.0907 33.6634 25.1055H31.7412V29.3674H32.6149V27.8525H33.2554L34.6447 30.4348L35.6482 30.4355H35.6489ZM33.5337 27.0546H32.6169V25.9048H33.531C33.6091 25.8954 33.6882 25.9033 33.7631 25.9279C33.838 25.9525 33.9071 25.9933 33.9657 26.0476C34.0244 26.1019 34.0714 26.1685 34.1035 26.2429C34.1357 26.3174 34.1523 26.3981 34.1523 26.4797C34.1523 26.5613 34.1357 26.642 34.1035 26.7165C34.0714 26.791 34.0244 26.8575 33.9657 26.9118C33.9071 26.9661 33.838 27.0069 33.7631 27.0315C33.6882 27.0561 33.6091 27.064 33.531 27.0546H33.5337ZM38.9288 29.3674C40.2152 29.3674 41.1078 28.5241 41.1078 27.2396C41.1078 25.9551 40.2132 25.1055 38.9288 25.1055H37.3103V29.3674H38.9288ZM38.9288 28.5688H38.1841V25.9048H38.9288C39.1009 25.8917 39.2736 25.9173 39.4353 25.9797C39.597 26.0421 39.7439 26.14 39.8659 26.2666C39.988 26.3932 40.0824 26.5457 40.1426 26.7136C40.2029 26.8815 40.2277 27.0609 40.2152 27.2396C40.2228 27.417 40.1945 27.5941 40.1323 27.7596C40.07 27.925 39.9752 28.0751 39.8538 28.2002C39.7324 28.3253 39.5871 28.4226 39.4274 28.486C39.2676 28.5493 39.0969 28.5773 38.9261 28.5681L38.9288 28.5688ZM42.1691 25.0238V25.035C42.1691 25.1918 42.1243 25.3451 42.0405 25.4755C41.9566 25.6059 41.8374 25.7076 41.6979 25.7676C41.5584 25.8276 41.405 25.8434 41.2569 25.8128C41.1088 25.7823 40.9727 25.7068 40.8659 25.596C40.7591 25.4852 40.6863 25.3439 40.6568 25.1901C40.6273 25.0363 40.6423 24.8769 40.7 24.732C40.7577 24.5871 40.8554 24.4632 40.9809 24.3759C41.1064 24.2887 41.2539 24.2421 41.4049 24.2419H42.1684V25.0238H42.1691Z" fill="white"/>
</g>
</svg>
